<?xml version="1.0" standalone="no"?>
<svg xmlns:xlink="http://www.w3.org/1999/xlink" id="wave" style="transform:rotate(180deg); transition: 0.3s" viewBox="0 0 1440 100" version="1.1" xmlns="http://www.w3.org/2000/svg"><defs><linearGradient id="sw-gradient-0" x1="0" x2="0" y1="1" y2="0"><stop stop-color="rgba(255, 203, 69, 1)" offset="0%"/><stop stop-color="rgba(255, 203, 69, 1)" offset="100%"/></linearGradient></defs><path style="transform:translate(0, 0px); opacity:1" fill="url(#sw-gradient-0)" d="M0,30L30,33.3C60,37,120,43,180,43.3C240,43,300,37,360,28.3C420,20,480,10,540,15C600,20,660,40,720,41.7C780,43,840,27,900,16.7C960,7,1020,3,1080,11.7C1140,20,1200,40,1260,40C1320,40,1380,20,1440,21.7C1500,23,1560,47,1620,51.7C1680,57,1740,43,1800,40C1860,37,1920,43,1980,46.7C2040,50,2100,50,2160,50C2220,50,2280,50,2340,43.3C2400,37,2460,23,2520,21.7C2580,20,2640,30,2700,43.3C2760,57,2820,73,2880,78.3C2940,83,3000,77,3060,75C3120,73,3180,77,3240,75C3300,73,3360,67,3420,65C3480,63,3540,67,3600,70C3660,73,3720,77,3780,75C3840,73,3900,67,3960,58.3C4020,50,4080,40,4140,36.7C4200,33,4260,37,4290,38.3L4320,40L4320,100L4290,100C4260,100,4200,100,4140,100C4080,100,4020,100,3960,100C3900,100,3840,100,3780,100C3720,100,3660,100,3600,100C3540,100,3480,100,3420,100C3360,100,3300,100,3240,100C3180,100,3120,100,3060,100C3000,100,2940,100,2880,100C2820,100,2760,100,2700,100C2640,100,2580,100,2520,100C2460,100,2400,100,2340,100C2280,100,2220,100,2160,100C2100,100,2040,100,1980,100C1920,100,1860,100,1800,100C1740,100,1680,100,1620,100C1560,100,1500,100,1440,100C1380,100,1320,100,1260,100C1200,100,1140,100,1080,100C1020,100,960,100,900,100C840,100,780,100,720,100C660,100,600,100,540,100C480,100,420,100,360,100C300,100,240,100,180,100C120,100,60,100,30,100L0,100Z"/></svg>